<?xml version="1.0" encoding="UTF-8" standalone="no"?>
<!DOCTYPE svg PUBLIC "-//W3C//DTD SVG 1.1//EN"
 "http://www.w3.org/Graphics/SVG/1.1/DTD/svg11.dtd">
<!-- Generated by graphviz version 2.40.1 (20161225.0304)
 -->
<!-- Title: G Pages: 1 -->
<svg width="1442pt" height="388pt"
 viewBox="0.00 0.00 1442.08 388.00" xmlns="http://www.w3.org/2000/svg" xmlns:xlink="http://www.w3.org/1999/xlink">
<g id="graph0" class="graph" transform="scale(1 1) rotate(0) translate(4 384)">
<title>G</title>
<polygon fill="#ffffff" stroke="transparent" points="-4,4 -4,-384 1438.076,-384 1438.076,4 -4,4"/>
<g id="clust1" class="cluster">
<title>cluster_diames</title>
<path fill="#808080" fill-opacity="0.094118" stroke="#000000" d="M1011.3968,-72C1011.3968,-72 1382.3968,-72 1382.3968,-72 1388.3968,-72 1394.3968,-78 1394.3968,-84 1394.3968,-84 1394.3968,-249 1394.3968,-249 1394.3968,-255 1388.3968,-261 1382.3968,-261 1382.3968,-261 1011.3968,-261 1011.3968,-261 1005.3968,-261 999.3968,-255 999.3968,-249 999.3968,-249 999.3968,-84 999.3968,-84 999.3968,-78 1005.3968,-72 1011.3968,-72"/>
<text text-anchor="middle" x="1196.8968" y="-245.8" font-family="Times,serif" font-size="14.00" fill="#000000">diames</text>
</g>
<g id="clust2" class="cluster">
<title>cluster_diames__DiaMes</title>
<path fill="#808080" fill-opacity="0.094118" stroke="#000000" d="M1107.3968,-80C1107.3968,-80 1374.3968,-80 1374.3968,-80 1380.3968,-80 1386.3968,-86 1386.3968,-92 1386.3968,-92 1386.3968,-218 1386.3968,-218 1386.3968,-224 1380.3968,-230 1374.3968,-230 1374.3968,-230 1107.3968,-230 1107.3968,-230 1101.3968,-230 1095.3968,-224 1095.3968,-218 1095.3968,-218 1095.3968,-92 1095.3968,-92 1095.3968,-86 1101.3968,-80 1107.3968,-80"/>
<text text-anchor="middle" x="1240.8968" y="-214.8" font-family="Times,serif" font-size="14.00" fill="#000000">diames.DiaMes</text>
</g>
<g id="clust3" class="cluster">
<title>cluster_invasao_com_builtins</title>
<path fill="#808080" fill-opacity="0.094118" stroke="#000000" d="M200.3968,-80C200.3968,-80 589.3968,-80 589.3968,-80 595.3968,-80 601.3968,-86 601.3968,-92 601.3968,-92 601.3968,-324 601.3968,-324 601.3968,-330 595.3968,-336 589.3968,-336 589.3968,-336 200.3968,-336 200.3968,-336 194.3968,-336 188.3968,-330 188.3968,-324 188.3968,-324 188.3968,-92 188.3968,-92 188.3968,-86 194.3968,-80 200.3968,-80"/>
<text text-anchor="middle" x="394.8968" y="-320.8" font-family="Times,serif" font-size="14.00" fill="#000000">invasao_com_builtins</text>
</g>
<g id="clust4" class="cluster">
<title>cluster_utilidades</title>
<path fill="#808080" fill-opacity="0.094118" stroke="#000000" d="M621.3968,-8C621.3968,-8 979.3968,-8 979.3968,-8 985.3968,-8 991.3968,-14 991.3968,-20 991.3968,-20 991.3968,-143 991.3968,-143 991.3968,-149 985.3968,-155 979.3968,-155 979.3968,-155 621.3968,-155 621.3968,-155 615.3968,-155 609.3968,-149 609.3968,-143 609.3968,-143 609.3968,-20 609.3968,-20 609.3968,-14 615.3968,-8 621.3968,-8"/>
<text text-anchor="middle" x="800.3968" y="-139.8" font-family="Times,serif" font-size="14.00" fill="#000000">utilidades</text>
</g>
<!-- invasao_com_builtins -->
<g id="node1" class="node">
<title>invasao_com_builtins</title>
<ellipse fill="#ffffff" fill-opacity="0.698039" stroke="#000000" cx="135.3968" cy="-362" rx="88.2844" ry="18"/>
<text text-anchor="middle" x="135.3968" y="-358.3" font-family="Times,serif" font-size="14.00" fill="#000000">invasao_com_builtins</text>
</g>
<!-- diames -->
<g id="node2" class="node">
<title>diames</title>
<ellipse fill="#ffffff" fill-opacity="0.698039" stroke="#000000" cx="36.3968" cy="-287" rx="36.2938" ry="18"/>
<text text-anchor="middle" x="36.3968" y="-283.3" font-family="Times,serif" font-size="14.00" fill="#000000">diames</text>
</g>
<!-- invasao_com_builtins&#45;&gt;diames -->
<g id="edge2" class="edge">
<title>invasao_com_builtins&#45;&gt;diames</title>
<path fill="none" stroke="#000000" d="M96.8704,-345.6992C91.479,-342.7831 86.1598,-339.5339 81.3968,-336 72.1181,-329.1158 63.2199,-320.13 55.8215,-311.7362"/>
<polygon fill="#000000" stroke="#000000" points="58.3619,-309.3203 49.2244,-303.9578 53.0234,-313.8481 58.3619,-309.3203"/>
</g>
<!-- utilidades -->
<g id="node3" class="node">
<title>utilidades</title>
<ellipse fill="#ffffff" fill-opacity="0.698039" stroke="#000000" cx="135.3968" cy="-287" rx="44.6926" ry="18"/>
<text text-anchor="middle" x="135.3968" y="-283.3" font-family="Times,serif" font-size="14.00" fill="#000000">utilidades</text>
</g>
<!-- invasao_com_builtins&#45;&gt;utilidades -->
<g id="edge1" class="edge">
<title>invasao_com_builtins&#45;&gt;utilidades</title>
<path fill="none" stroke="#000000" d="M135.3968,-343.8446C135.3968,-335.3401 135.3968,-325.0076 135.3968,-315.4964"/>
<polygon fill="#000000" stroke="#000000" points="138.8969,-315.2481 135.3968,-305.2482 131.8969,-315.2482 138.8969,-315.2481"/>
</g>
<!-- invasao_com_builtins__resolucao -->
<g id="node10" class="node">
<title>invasao_com_builtins__resolucao</title>
<ellipse fill="#ccfee0" fill-opacity="0.698039" stroke="#000000" cx="358.3968" cy="-287" rx="44.393" ry="18"/>
<text text-anchor="middle" x="358.3968" y="-283.3" font-family="Times,serif" font-size="14.00" fill="#000000">resolucao</text>
</g>
<!-- invasao_com_builtins&#45;&gt;invasao_com_builtins__resolucao -->
<g id="edge3" class="edge">
<title>invasao_com_builtins&#45;&gt;invasao_com_builtins__resolucao</title>
<path fill="none" stroke="#000000" d="M181.3321,-346.5509C220.307,-333.4428 275.8584,-314.7595 314.2999,-301.8308"/>
<polygon fill="#000000" stroke="#000000" points="315.809,-305.016 324.1716,-298.5107 313.5775,-298.3811 315.809,-305.016"/>
</g>
<!-- diames__DiaMes -->
<g id="node4" class="node">
<title>diames__DiaMes</title>
<ellipse fill="#f4fecc" fill-opacity="0.698039" stroke="#000000" cx="1046.3968" cy="-181" rx="38.9931" ry="18"/>
<text text-anchor="middle" x="1046.3968" y="-177.3" font-family="Times,serif" font-size="14.00" fill="#000000">DiaMes</text>
</g>
<!-- diames__DiaMes____repr__ -->
<g id="node5" class="node">
<title>diames__DiaMes____repr__</title>
<ellipse fill="#eaff99" fill-opacity="0.698039" stroke="#000000" cx="1336.3968" cy="-181" rx="42.4939" ry="18"/>
<text text-anchor="middle" x="1336.3968" y="-177.3" font-family="Times,serif" font-size="14.00" fill="#000000">__repr__</text>
</g>
<!-- diames__DiaMes___corrigir_dia_e_mes -->
<g id="node6" class="node">
<title>diames__DiaMes___corrigir_dia_e_mes</title>
<ellipse fill="#eaff99" fill-opacity="0.698039" stroke="#000000" cx="1235.3968" cy="-106" rx="83.6854" ry="18"/>
<text text-anchor="middle" x="1235.3968" y="-102.3" font-family="Times,serif" font-size="14.00" fill="#000000">_corrigir_dia_e_mes</text>
</g>
<!-- diames__DiaMes____init__ -->
<g id="node7" class="node">
<title>diames__DiaMes____init__</title>
<ellipse fill="#eaff99" fill-opacity="0.698039" stroke="#000000" cx="1235.3968" cy="-181" rx="40.0939" ry="18"/>
<text text-anchor="middle" x="1235.3968" y="-177.3" font-family="Times,serif" font-size="14.00" fill="#000000">__init__</text>
</g>
<!-- diames__DiaMes____init__&#45;&gt;diames__DiaMes___corrigir_dia_e_mes -->
<g id="edge4" class="edge">
<title>diames__DiaMes____init__&#45;&gt;diames__DiaMes___corrigir_dia_e_mes</title>
<path fill="none" stroke="#000000" d="M1235.3968,-162.8446C1235.3968,-154.3401 1235.3968,-144.0076 1235.3968,-134.4964"/>
<polygon fill="#000000" stroke="#000000" points="1238.8969,-134.2481 1235.3968,-124.2482 1231.8969,-134.2482 1238.8969,-134.2481"/>
</g>
<!-- diames__DiaMes____str__ -->
<g id="node8" class="node">
<title>diames__DiaMes____str__</title>
<ellipse fill="#eaff99" fill-opacity="0.698039" stroke="#000000" cx="1140.3968" cy="-181" rx="37.0935" ry="18"/>
<text text-anchor="middle" x="1140.3968" y="-177.3" font-family="Times,serif" font-size="14.00" fill="#000000">__str__</text>
</g>
<!-- invasao_com_builtins__metodo_B -->
<g id="node9" class="node">
<title>invasao_com_builtins__metodo_B</title>
<ellipse fill="#ccfee0" fill-opacity="0.698039" stroke="#000000" cx="244.3968" cy="-181" rx="48.1917" ry="18"/>
<text text-anchor="middle" x="244.3968" y="-177.3" font-family="Times,serif" font-size="14.00" fill="#000000">metodo_B</text>
</g>
<!-- invasao_com_builtins__sequencia_B -->
<g id="node13" class="node">
<title>invasao_com_builtins__sequencia_B</title>
<ellipse fill="#ccfee0" fill-opacity="0.698039" stroke="#000000" cx="252.3968" cy="-106" rx="55.7903" ry="18"/>
<text text-anchor="middle" x="252.3968" y="-102.3" font-family="Times,serif" font-size="14.00" fill="#000000">sequencia_B</text>
</g>
<!-- invasao_com_builtins__metodo_B&#45;&gt;invasao_com_builtins__sequencia_B -->
<g id="edge13" class="edge">
<title>invasao_com_builtins__metodo_B&#45;&gt;invasao_com_builtins__sequencia_B</title>
<path fill="none" stroke="#000000" d="M246.3333,-162.8446C247.2405,-154.3401 248.3426,-144.0076 249.3572,-134.4964"/>
<polygon fill="#000000" stroke="#000000" points="252.8698,-134.563 250.4503,-124.2482 245.9093,-133.8205 252.8698,-134.563"/>
</g>
<!-- utilidades__ultimos_2_digitos -->
<g id="node14" class="node">
<title>utilidades__ultimos_2_digitos</title>
<ellipse fill="#cce0fe" fill-opacity="0.698039" stroke="#000000" cx="692.3968" cy="-106" rx="74.9875" ry="18"/>
<text text-anchor="middle" x="692.3968" y="-102.3" font-family="Times,serif" font-size="14.00" fill="#000000">ultimos_2_digitos</text>
</g>
<!-- invasao_com_builtins__metodo_B&#45;&gt;utilidades__ultimos_2_digitos -->
<g id="edge12" class="edge">
<title>invasao_com_builtins__metodo_B&#45;&gt;utilidades__ultimos_2_digitos</title>
<path fill="none" stroke="#000000" d="M278.9861,-168.3851C286.2951,-166.1996 294.0278,-164.2353 301.3968,-163 368.0457,-151.8271 540.2593,-173.0008 605.3968,-155 624.8116,-149.6347 644.5253,-139.0452 660.2669,-129.0792"/>
<polygon fill="#000000" stroke="#000000" points="662.5982,-131.7361 669.044,-123.3276 658.7615,-125.8812 662.5982,-131.7361"/>
</g>
<!-- invasao_com_builtins__resolucao&#45;&gt;diames__DiaMes -->
<g id="edge10" class="edge">
<title>invasao_com_builtins__resolucao&#45;&gt;diames__DiaMes</title>
<path fill="none" stroke="#000000" d="M402.4435,-285.3889C493.0326,-281.8794 697.5037,-272.8947 766.3968,-261 853.3965,-245.9791 951.9949,-214.2248 1005.8842,-195.5562"/>
<polygon fill="#000000" stroke="#000000" points="1007.1256,-198.83 1015.4133,-192.2296 1004.8185,-192.2211 1007.1256,-198.83"/>
</g>
<!-- invasao_com_builtins__resolucao&#45;&gt;invasao_com_builtins__metodo_B -->
<g id="edge7" class="edge">
<title>invasao_com_builtins__resolucao&#45;&gt;invasao_com_builtins__metodo_B</title>
<path fill="none" stroke="#000000" d="M324.7295,-275.1605C316.5969,-271.3836 308.2763,-266.6761 301.3968,-261 283.6384,-246.3482 268.7584,-224.9021 258.6593,-207.9022"/>
<polygon fill="#000000" stroke="#000000" points="261.5601,-205.9244 253.5527,-198.9866 255.4859,-209.4036 261.5601,-205.9244"/>
</g>
<!-- invasao_com_builtins__metodo_A -->
<g id="node11" class="node">
<title>invasao_com_builtins__metodo_A</title>
<ellipse fill="#ccfee0" fill-opacity="0.698039" stroke="#000000" cx="358.3968" cy="-181" rx="48.1917" ry="18"/>
<text text-anchor="middle" x="358.3968" y="-177.3" font-family="Times,serif" font-size="14.00" fill="#000000">metodo_A</text>
</g>
<!-- invasao_com_builtins__resolucao&#45;&gt;invasao_com_builtins__metodo_A -->
<g id="edge9" class="edge">
<title>invasao_com_builtins__resolucao&#45;&gt;invasao_com_builtins__metodo_A</title>
<path fill="none" stroke="#000000" d="M358.3968,-268.5362C358.3968,-252.1966 358.3968,-228.1 358.3968,-209.3232"/>
<polygon fill="#000000" stroke="#000000" points="361.8969,-209.2522 358.3968,-199.2522 354.8969,-209.2522 361.8969,-209.2522"/>
</g>
<!-- invasao_com_builtins__partes_decodificadas -->
<g id="node12" class="node">
<title>invasao_com_builtins__partes_decodificadas</title>
<ellipse fill="#ccfee0" fill-opacity="0.698039" stroke="#000000" cx="509.3968" cy="-181" rx="84.485" ry="18"/>
<text text-anchor="middle" x="509.3968" y="-177.3" font-family="Times,serif" font-size="14.00" fill="#000000">partes_decodificadas</text>
</g>
<!-- invasao_com_builtins__resolucao&#45;&gt;invasao_com_builtins__partes_decodificadas -->
<g id="edge11" class="edge">
<title>invasao_com_builtins__resolucao&#45;&gt;invasao_com_builtins__partes_decodificadas</title>
<path fill="none" stroke="#000000" d="M390.2761,-274.3375C398.6914,-270.4952 407.596,-265.962 415.3968,-261 440.5528,-244.9987 466.1288,-222.7618 484.2387,-205.7928"/>
<polygon fill="#000000" stroke="#000000" points="486.68,-208.3011 491.5199,-198.8764 481.859,-203.2258 486.68,-208.3011"/>
</g>
<!-- utilidades__number_list_from_string -->
<g id="node15" class="node">
<title>utilidades__number_list_from_string</title>
<ellipse fill="#cce0fe" fill-opacity="0.698039" stroke="#000000" cx="884.3968" cy="-106" rx="99.3824" ry="18"/>
<text text-anchor="middle" x="884.3968" y="-102.3" font-family="Times,serif" font-size="14.00" fill="#000000">number_list_from_string</text>
</g>
<!-- invasao_com_builtins__resolucao&#45;&gt;utilidades__number_list_from_string -->
<g id="edge8" class="edge">
<title>invasao_com_builtins__resolucao&#45;&gt;utilidades__number_list_from_string</title>
<path fill="none" stroke="#000000" d="M402.222,-284.4107C462.0984,-280.5168 566.1738,-272.3785 602.3968,-261 699.6376,-230.4543 801.506,-164.7212 852.0166,-129.4696"/>
<polygon fill="#000000" stroke="#000000" points="854.0932,-132.2881 860.2565,-123.6704 850.0643,-126.5638 854.0932,-132.2881"/>
</g>
<!-- utilidades__digits_from -->
<g id="node16" class="node">
<title>utilidades__digits_from</title>
<ellipse fill="#cce0fe" fill-opacity="0.698039" stroke="#000000" cx="692.3968" cy="-34" rx="51.9908" ry="18"/>
<text text-anchor="middle" x="692.3968" y="-30.3" font-family="Times,serif" font-size="14.00" fill="#000000">digits_from</text>
</g>
<!-- invasao_com_builtins__resolucao&#45;&gt;utilidades__digits_from -->
<g id="edge6" class="edge">
<title>invasao_com_builtins__resolucao&#45;&gt;utilidades__digits_from</title>
<path fill="none" stroke="#000000" d="M402.8985,-286.7182C598.4918,-285.3757 1372.9087,-278.9342 1390.3968,-261 1449.041,-200.8597 1448.1567,-132.99 1390.3968,-72 1368.6979,-49.0877 921.3869,-38.3207 754.4762,-35.0896"/>
<polygon fill="#000000" stroke="#000000" points="754.4325,-31.5882 744.3675,-34.8965 754.2988,-38.587 754.4325,-31.5882"/>
</g>
<!-- utilidades__ultimos_2_digitos&#45;&gt;utilidades__digits_from -->
<g id="edge5" class="edge">
<title>utilidades__ultimos_2_digitos&#45;&gt;utilidades__digits_from</title>
<path fill="none" stroke="#000000" d="M692.3968,-87.8314C692.3968,-80.131 692.3968,-70.9743 692.3968,-62.4166"/>
<polygon fill="#000000" stroke="#000000" points="695.8969,-62.4132 692.3968,-52.4133 688.8969,-62.4133 695.8969,-62.4132"/>
</g>
</g>
</svg>
