<?xml version="1.0" encoding="UTF-8" standalone="no"?>
<!DOCTYPE svg PUBLIC "-//W3C//DTD SVG 1.1//EN"
 "http://www.w3.org/Graphics/SVG/1.1/DTD/svg11.dtd">
<!-- Generated by graphviz version 2.40.1 (20161225.0304)
 -->
<!-- Title: G Pages: 1 -->
<svg width="1867pt" height="404pt"
 viewBox="0.00 0.00 1867.18 404.00" xmlns="http://www.w3.org/2000/svg" xmlns:xlink="http://www.w3.org/1999/xlink">
<g id="graph0" class="graph" transform="scale(1 1) rotate(0) translate(4 400)">
<title>G</title>
<polygon fill="#ffffff" stroke="transparent" points="-4,4 -4,-400 1863.1811,-400 1863.1811,4 -4,4"/>
<!-- invasao_sem_builtin -->
<g id="node1" class="node">
<title>invasao_sem_builtin</title>
<ellipse fill="#ffffff" fill-opacity="0.698039" stroke="#000000" cx="1207.9919" cy="-378" rx="83.6854" ry="18"/>
<text text-anchor="middle" x="1207.9919" y="-374.3" font-family="Times,serif" font-size="14.00" fill="#000000">invasao_sem_builtin</text>
</g>
<!-- invasao_sem_builtin__resolucao -->
<g id="node5" class="node">
<title>invasao_sem_builtin__resolucao</title>
<ellipse fill="#ccfecc" fill-opacity="0.698039" stroke="#000000" cx="1207.9919" cy="-306" rx="44.393" ry="18"/>
<text text-anchor="middle" x="1207.9919" y="-302.3" font-family="Times,serif" font-size="14.00" fill="#000000">resolucao</text>
</g>
<!-- invasao_sem_builtin&#45;&gt;invasao_sem_builtin__resolucao -->
<g id="edge18" class="edge">
<title>invasao_sem_builtin&#45;&gt;invasao_sem_builtin__resolucao</title>
<path fill="none" stroke="#000000" d="M1207.9919,-359.8314C1207.9919,-352.131 1207.9919,-342.9743 1207.9919,-334.4166"/>
<polygon fill="#000000" stroke="#000000" points="1211.492,-334.4132 1207.9919,-324.4133 1204.492,-334.4133 1211.492,-334.4132"/>
</g>
<!-- invasao_sem_builtin__metodo_A -->
<g id="node2" class="node">
<title>invasao_sem_builtin__metodo_A</title>
<ellipse fill="#ccfecc" fill-opacity="0.698039" stroke="#000000" cx="414.9919" cy="-234" rx="48.1917" ry="18"/>
<text text-anchor="middle" x="414.9919" y="-230.3" font-family="Times,serif" font-size="14.00" fill="#000000">metodo_A</text>
</g>
<!-- invasao_sem_builtin__produto_dos_pares -->
<g id="node3" class="node">
<title>invasao_sem_builtin__produto_dos_pares</title>
<ellipse fill="#ccfecc" fill-opacity="0.698039" stroke="#000000" cx="90.9919" cy="-162" rx="77.1866" ry="18"/>
<text text-anchor="middle" x="90.9919" y="-158.3" font-family="Times,serif" font-size="14.00" fill="#000000">produto_dos_pares</text>
</g>
<!-- invasao_sem_builtin__metodo_A&#45;&gt;invasao_sem_builtin__produto_dos_pares -->
<g id="edge3" class="edge">
<title>invasao_sem_builtin__metodo_A&#45;&gt;invasao_sem_builtin__produto_dos_pares</title>
<path fill="none" stroke="#000000" d="M373.628,-224.808C318.9749,-212.6629 222.0611,-191.1265 157.1693,-176.7061"/>
<polygon fill="#000000" stroke="#000000" points="157.562,-173.208 147.0409,-174.4553 156.0434,-180.0414 157.562,-173.208"/>
</g>
<!-- invasao_sem_builtin__lista_dos_pares -->
<g id="node4" class="node">
<title>invasao_sem_builtin__lista_dos_pares</title>
<ellipse fill="#ccfecc" fill-opacity="0.698039" stroke="#000000" cx="549.9919" cy="-162" rx="64.9885" ry="18"/>
<text text-anchor="middle" x="549.9919" y="-158.3" font-family="Times,serif" font-size="14.00" fill="#000000">lista_dos_pares</text>
</g>
<!-- invasao_sem_builtin__metodo_A&#45;&gt;invasao_sem_builtin__lista_dos_pares -->
<g id="edge5" class="edge">
<title>invasao_sem_builtin__metodo_A&#45;&gt;invasao_sem_builtin__lista_dos_pares</title>
<path fill="none" stroke="#000000" d="M442.637,-219.256C462.3464,-208.7443 489.1189,-194.4656 510.9971,-182.7973"/>
<polygon fill="#000000" stroke="#000000" points="512.8624,-185.7691 520.0389,-177.9749 509.5683,-179.5926 512.8624,-185.7691"/>
</g>
<!-- invasao_sem_builtin__soma_da_lista -->
<g id="node8" class="node">
<title>invasao_sem_builtin__soma_da_lista</title>
<ellipse fill="#ccfecc" fill-opacity="0.698039" stroke="#000000" cx="811.9919" cy="-18" rx="61.99" ry="18"/>
<text text-anchor="middle" x="811.9919" y="-14.3" font-family="Times,serif" font-size="14.00" fill="#000000">soma_da_lista</text>
</g>
<!-- invasao_sem_builtin__metodo_A&#45;&gt;invasao_sem_builtin__soma_da_lista -->
<g id="edge6" class="edge">
<title>invasao_sem_builtin__metodo_A&#45;&gt;invasao_sem_builtin__soma_da_lista</title>
<path fill="none" stroke="#000000" d="M423.0033,-216.0005C432.8121,-195.8581 451.2244,-163.4997 475.9919,-144 558.1564,-79.311 677.0265,-45.283 749.1435,-29.5193"/>
<polygon fill="#000000" stroke="#000000" points="749.9517,-32.9257 759.0005,-27.4149 748.4901,-26.08 749.9517,-32.9257"/>
</g>
<!-- invasao_sem_builtin__ordenar_lista -->
<g id="node17" class="node">
<title>invasao_sem_builtin__ordenar_lista</title>
<ellipse fill="#ccfecc" fill-opacity="0.698039" stroke="#000000" cx="242.9919" cy="-162" rx="56.59" ry="18"/>
<text text-anchor="middle" x="242.9919" y="-158.3" font-family="Times,serif" font-size="14.00" fill="#000000">ordenar_lista</text>
</g>
<!-- invasao_sem_builtin__metodo_A&#45;&gt;invasao_sem_builtin__ordenar_lista -->
<g id="edge4" class="edge">
<title>invasao_sem_builtin__metodo_A&#45;&gt;invasao_sem_builtin__ordenar_lista</title>
<path fill="none" stroke="#000000" d="M382.64,-220.4574C355.5069,-209.0993 316.5111,-192.7755 286.6198,-180.2628"/>
<polygon fill="#000000" stroke="#000000" points="287.8372,-176.9782 277.2613,-176.3453 285.1342,-183.4353 287.8372,-176.9782"/>
</g>
<!-- invasao_sem_builtin__sequencia_A -->
<g id="node19" class="node">
<title>invasao_sem_builtin__sequencia_A</title>
<ellipse fill="#ccfecc" fill-opacity="0.698039" stroke="#000000" cx="372.9919" cy="-162" rx="55.7903" ry="18"/>
<text text-anchor="middle" x="372.9919" y="-158.3" font-family="Times,serif" font-size="14.00" fill="#000000">sequencia_A</text>
</g>
<!-- invasao_sem_builtin__metodo_A&#45;&gt;invasao_sem_builtin__sequencia_A -->
<g id="edge7" class="edge">
<title>invasao_sem_builtin__metodo_A&#45;&gt;invasao_sem_builtin__sequencia_A</title>
<path fill="none" stroke="#000000" d="M404.6099,-216.2022C399.7637,-207.8944 393.8937,-197.8316 388.5335,-188.6427"/>
<polygon fill="#000000" stroke="#000000" points="391.4621,-186.7168 383.4001,-179.8425 385.4156,-190.2439 391.4621,-186.7168"/>
</g>
<!-- invasao_sem_builtin__multiplicacao_da_lista -->
<g id="node15" class="node">
<title>invasao_sem_builtin__multiplicacao_da_lista</title>
<ellipse fill="#ccfecc" fill-opacity="0.698039" stroke="#000000" cx="90.9919" cy="-90" rx="90.9839" ry="18"/>
<text text-anchor="middle" x="90.9919" y="-86.3" font-family="Times,serif" font-size="14.00" fill="#000000">multiplicacao_da_lista</text>
</g>
<!-- invasao_sem_builtin__produto_dos_pares&#45;&gt;invasao_sem_builtin__multiplicacao_da_lista -->
<g id="edge17" class="edge">
<title>invasao_sem_builtin__produto_dos_pares&#45;&gt;invasao_sem_builtin__multiplicacao_da_lista</title>
<path fill="none" stroke="#000000" d="M90.9919,-143.8314C90.9919,-136.131 90.9919,-126.9743 90.9919,-118.4166"/>
<polygon fill="#000000" stroke="#000000" points="94.492,-118.4132 90.9919,-108.4133 87.492,-118.4133 94.492,-118.4132"/>
</g>
<!-- invasao_sem_builtin__resolucao&#45;&gt;invasao_sem_builtin__metodo_A -->
<g id="edge11" class="edge">
<title>invasao_sem_builtin__resolucao&#45;&gt;invasao_sem_builtin__metodo_A</title>
<path fill="none" stroke="#000000" d="M1164.7936,-302.0778C1030.9114,-289.9221 622.875,-252.8746 471.9254,-239.1692"/>
<polygon fill="#000000" stroke="#000000" points="472.2094,-235.6807 461.9339,-238.2621 471.5764,-242.652 472.2094,-235.6807"/>
</g>
<!-- invasao_sem_builtin__soma_dos_digitos -->
<g id="node7" class="node">
<title>invasao_sem_builtin__soma_dos_digitos</title>
<ellipse fill="#ccfecc" fill-opacity="0.698039" stroke="#000000" cx="717.9919" cy="-234" rx="74.9875" ry="18"/>
<text text-anchor="middle" x="717.9919" y="-230.3" font-family="Times,serif" font-size="14.00" fill="#000000">soma_dos_digitos</text>
</g>
<!-- invasao_sem_builtin__resolucao&#45;&gt;invasao_sem_builtin__soma_dos_digitos -->
<g id="edge10" class="edge">
<title>invasao_sem_builtin__resolucao&#45;&gt;invasao_sem_builtin__soma_dos_digitos</title>
<path fill="none" stroke="#000000" d="M1165.1525,-301.4275C1090.9246,-293.2538 933.708,-274.8353 801.9919,-252 795.7235,-250.9133 789.2119,-249.6889 782.7121,-248.403"/>
<polygon fill="#000000" stroke="#000000" points="783.0405,-244.8985 772.5446,-246.3426 781.6502,-251.759 783.0405,-244.8985"/>
</g>
<!-- invasao_sem_builtin__resolucao&#45;&gt;invasao_sem_builtin__soma_da_lista -->
<g id="edge12" class="edge">
<title>invasao_sem_builtin__resolucao&#45;&gt;invasao_sem_builtin__soma_da_lista</title>
<path fill="none" stroke="#000000" d="M1242.2432,-294.6054C1261.75,-286.151 1284.5245,-272.4911 1295.9919,-252 1319.433,-210.1131 1323.3994,-183.406 1295.9919,-144 1248.6134,-75.8799 1002.1998,-39.2434 880.3548,-25.0497"/>
<polygon fill="#000000" stroke="#000000" points="880.715,-21.5682 870.3812,-23.9057 879.9172,-28.5226 880.715,-21.5682"/>
</g>
<!-- invasao_sem_builtin__dia_e_mes_para_string -->
<g id="node9" class="node">
<title>invasao_sem_builtin__dia_e_mes_para_string</title>
<ellipse fill="#ccfecc" fill-opacity="0.698039" stroke="#000000" cx="1017.9919" cy="-234" rx="92.8835" ry="18"/>
<text text-anchor="middle" x="1017.9919" y="-230.3" font-family="Times,serif" font-size="14.00" fill="#000000">dia_e_mes_para_string</text>
</g>
<!-- invasao_sem_builtin__resolucao&#45;&gt;invasao_sem_builtin__dia_e_mes_para_string -->
<g id="edge15" class="edge">
<title>invasao_sem_builtin__resolucao&#45;&gt;invasao_sem_builtin__dia_e_mes_para_string</title>
<path fill="none" stroke="#000000" d="M1175.3298,-293.6228C1146.4557,-282.681 1103.8262,-266.5267 1070.221,-253.7921"/>
<polygon fill="#000000" stroke="#000000" points="1071.1463,-250.3999 1060.5549,-250.1291 1068.6657,-256.9457 1071.1463,-250.3999"/>
</g>
<!-- invasao_sem_builtin__corrigir_dia_e_mes -->
<g id="node11" class="node">
<title>invasao_sem_builtin__corrigir_dia_e_mes</title>
<ellipse fill="#ccfecc" fill-opacity="0.698039" stroke="#000000" cx="1207.9919" cy="-234" rx="79.0865" ry="18"/>
<text text-anchor="middle" x="1207.9919" y="-230.3" font-family="Times,serif" font-size="14.00" fill="#000000">corrigir_dia_e_mes</text>
</g>
<!-- invasao_sem_builtin__resolucao&#45;&gt;invasao_sem_builtin__corrigir_dia_e_mes -->
<g id="edge14" class="edge">
<title>invasao_sem_builtin__resolucao&#45;&gt;invasao_sem_builtin__corrigir_dia_e_mes</title>
<path fill="none" stroke="#000000" d="M1207.9919,-287.8314C1207.9919,-280.131 1207.9919,-270.9743 1207.9919,-262.4166"/>
<polygon fill="#000000" stroke="#000000" points="1211.492,-262.4132 1207.9919,-252.4133 1204.492,-262.4133 1211.492,-262.4132"/>
</g>
<!-- invasao_sem_builtin__metodo_B -->
<g id="node12" class="node">
<title>invasao_sem_builtin__metodo_B</title>
<ellipse fill="#ccfecc" fill-opacity="0.698039" stroke="#000000" cx="858.9919" cy="-234" rx="48.1917" ry="18"/>
<text text-anchor="middle" x="858.9919" y="-230.3" font-family="Times,serif" font-size="14.00" fill="#000000">metodo_B</text>
</g>
<!-- invasao_sem_builtin__resolucao&#45;&gt;invasao_sem_builtin__metodo_B -->
<g id="edge13" class="edge">
<title>invasao_sem_builtin__resolucao&#45;&gt;invasao_sem_builtin__metodo_B</title>
<path fill="none" stroke="#000000" d="M1166.0601,-299.9072C1109.0321,-291.2441 1004.0312,-273.9531 915.9919,-252 912.3544,-251.093 908.6085,-250.0835 904.8571,-249.0185"/>
<polygon fill="#000000" stroke="#000000" points="905.5672,-245.5788 894.9853,-246.1023 903.584,-252.292 905.5672,-245.5788"/>
</g>
<!-- invasao_sem_builtin__partes_decodificadas -->
<g id="node14" class="node">
<title>invasao_sem_builtin__partes_decodificadas</title>
<ellipse fill="#ccfecc" fill-opacity="0.698039" stroke="#000000" cx="1426.9919" cy="-234" rx="84.485" ry="18"/>
<text text-anchor="middle" x="1426.9919" y="-230.3" font-family="Times,serif" font-size="14.00" fill="#000000">partes_decodificadas</text>
</g>
<!-- invasao_sem_builtin__resolucao&#45;&gt;invasao_sem_builtin__partes_decodificadas -->
<g id="edge8" class="edge">
<title>invasao_sem_builtin__resolucao&#45;&gt;invasao_sem_builtin__partes_decodificadas</title>
<path fill="none" stroke="#000000" d="M1242.6931,-294.5914C1277.2341,-283.2355 1330.796,-265.6261 1371.2932,-252.3119"/>
<polygon fill="#000000" stroke="#000000" points="1372.6194,-255.5603 1381.0261,-249.1121 1370.4331,-248.9104 1372.6194,-255.5603"/>
</g>
<!-- invasao_sem_builtin__se_par -->
<g id="node16" class="node">
<title>invasao_sem_builtin__se_par</title>
<ellipse fill="#ccfecc" fill-opacity="0.698039" stroke="#000000" cx="1562.9919" cy="-234" rx="33.5952" ry="18"/>
<text text-anchor="middle" x="1562.9919" y="-230.3" font-family="Times,serif" font-size="14.00" fill="#000000">se_par</text>
</g>
<!-- invasao_sem_builtin__resolucao&#45;&gt;invasao_sem_builtin__se_par -->
<g id="edge9" class="edge">
<title>invasao_sem_builtin__resolucao&#45;&gt;invasao_sem_builtin__se_par</title>
<path fill="none" stroke="#000000" d="M1251.0742,-301.6491C1311.9122,-294.8091 1426.059,-279.4089 1519.9919,-252 1522.597,-251.2399 1525.2573,-250.3701 1527.9137,-249.4323"/>
<polygon fill="#000000" stroke="#000000" points="1529.3124,-252.645 1537.4109,-245.8138 1526.82,-246.1037 1529.3124,-252.645"/>
</g>
<!-- invasao_sem_builtin__pedir_numeros_para_o_usuario -->
<g id="node18" class="node">
<title>invasao_sem_builtin__pedir_numeros_para_o_usuario</title>
<ellipse fill="#ccfecc" fill-opacity="0.698039" stroke="#000000" cx="1736.9919" cy="-234" rx="122.3786" ry="18"/>
<text text-anchor="middle" x="1736.9919" y="-230.3" font-family="Times,serif" font-size="14.00" fill="#000000">pedir_numeros_para_o_usuario</text>
</g>
<!-- invasao_sem_builtin__resolucao&#45;&gt;invasao_sem_builtin__pedir_numeros_para_o_usuario -->
<g id="edge16" class="edge">
<title>invasao_sem_builtin__resolucao&#45;&gt;invasao_sem_builtin__pedir_numeros_para_o_usuario</title>
<path fill="none" stroke="#000000" d="M1250.1146,-300.3087C1322.7539,-290.489 1476.2769,-269.7115 1605.9919,-252 1616.1617,-250.6114 1626.7751,-249.1588 1637.367,-247.7069"/>
<polygon fill="#000000" stroke="#000000" points="1638.0685,-251.1435 1647.5002,-246.3172 1637.1174,-244.2084 1638.0685,-251.1435"/>
</g>
<!-- invasao_sem_builtin__esta_em -->
<g id="node6" class="node">
<title>invasao_sem_builtin__esta_em</title>
<ellipse fill="#ccfecc" fill-opacity="0.698039" stroke="#000000" cx="1736.9919" cy="-162" rx="40.0939" ry="18"/>
<text text-anchor="middle" x="1736.9919" y="-158.3" font-family="Times,serif" font-size="14.00" fill="#000000">esta_em</text>
</g>
<!-- invasao_sem_builtin__sequencia_B -->
<g id="node10" class="node">
<title>invasao_sem_builtin__sequencia_B</title>
<ellipse fill="#ccfecc" fill-opacity="0.698039" stroke="#000000" cx="1230.9919" cy="-162" rx="55.7903" ry="18"/>
<text text-anchor="middle" x="1230.9919" y="-158.3" font-family="Times,serif" font-size="14.00" fill="#000000">sequencia_B</text>
</g>
<!-- invasao_sem_builtin__metodo_B&#45;&gt;invasao_sem_builtin__lista_dos_pares -->
<g id="edge21" class="edge">
<title>invasao_sem_builtin__metodo_B&#45;&gt;invasao_sem_builtin__lista_dos_pares</title>
<path fill="none" stroke="#000000" d="M822.9751,-221.9901C816.049,-219.8615 808.8245,-217.7644 801.9919,-216 723.8428,-195.8189 702.7755,-197.5417 623.9919,-180 618.9587,-178.8793 613.7415,-177.6823 608.5134,-176.4583"/>
<polygon fill="#000000" stroke="#000000" points="609.0287,-172.9836 598.4912,-174.0841 607.415,-179.7951 609.0287,-172.9836"/>
</g>
<!-- invasao_sem_builtin__metodo_B&#45;&gt;invasao_sem_builtin__soma_da_lista -->
<g id="edge22" class="edge">
<title>invasao_sem_builtin__metodo_B&#45;&gt;invasao_sem_builtin__soma_da_lista</title>
<path fill="none" stroke="#000000" d="M859.4261,-215.5376C859.6269,-184.9494 857.8288,-122.159 841.9919,-72 839.0041,-62.5369 834.2568,-52.8597 829.4123,-44.3596"/>
<polygon fill="#000000" stroke="#000000" points="832.3416,-42.4389 824.196,-35.6639 826.3388,-46.0398 832.3416,-42.4389"/>
</g>
<!-- invasao_sem_builtin__metodo_B&#45;&gt;invasao_sem_builtin__sequencia_B -->
<g id="edge24" class="edge">
<title>invasao_sem_builtin__metodo_B&#45;&gt;invasao_sem_builtin__sequencia_B</title>
<path fill="none" stroke="#000000" d="M894.6268,-221.7692C901.6524,-219.6359 909.011,-217.5937 915.9919,-216 1025.4334,-191.0151 1056.1216,-203.0261 1165.9919,-180 1170.6191,-179.0303 1175.4035,-177.9187 1180.1805,-176.7341"/>
<polygon fill="#000000" stroke="#000000" points="1181.1133,-180.1082 1189.9227,-174.2222 1179.3655,-173.3298 1181.1133,-180.1082"/>
</g>
<!-- invasao_sem_builtin__dois_ultimos_digitos_de_cada_um -->
<g id="node20" class="node">
<title>invasao_sem_builtin__dois_ultimos_digitos_de_cada_um</title>
<ellipse fill="#ccfecc" fill-opacity="0.698039" stroke="#000000" cx="1022.9919" cy="-162" rx="133.7763" ry="18"/>
<text text-anchor="middle" x="1022.9919" y="-158.3" font-family="Times,serif" font-size="14.00" fill="#000000">dois_ultimos_digitos_de_cada_um</text>
</g>
<!-- invasao_sem_builtin__metodo_B&#45;&gt;invasao_sem_builtin__dois_ultimos_digitos_de_cada_um -->
<g id="edge20" class="edge">
<title>invasao_sem_builtin__metodo_B&#45;&gt;invasao_sem_builtin__dois_ultimos_digitos_de_cada_um</title>
<path fill="none" stroke="#000000" d="M890.2251,-220.2879C914.0014,-209.8495 947.1658,-195.2895 974.3998,-183.3331"/>
<polygon fill="#000000" stroke="#000000" points="976.0109,-186.4483 983.7603,-179.2236 973.1969,-180.0388 976.0109,-186.4483"/>
</g>
<!-- invasao_sem_builtin__soma_dos_pares -->
<g id="node21" class="node">
<title>invasao_sem_builtin__soma_dos_pares</title>
<ellipse fill="#ccfecc" fill-opacity="0.698039" stroke="#000000" cx="762.9919" cy="-90" rx="69.5877" ry="18"/>
<text text-anchor="middle" x="762.9919" y="-86.3" font-family="Times,serif" font-size="14.00" fill="#000000">soma_dos_pares</text>
</g>
<!-- invasao_sem_builtin__metodo_B&#45;&gt;invasao_sem_builtin__soma_dos_pares -->
<g id="edge23" class="edge">
<title>invasao_sem_builtin__metodo_B&#45;&gt;invasao_sem_builtin__soma_dos_pares</title>
<path fill="none" stroke="#000000" d="M848.758,-216.0763C838.0821,-197.6689 820.6136,-168.3494 803.9919,-144 797.5546,-134.5698 790.1091,-124.5331 783.3438,-115.7035"/>
<polygon fill="#000000" stroke="#000000" points="786.0107,-113.4309 777.1209,-107.667 780.476,-117.7166 786.0107,-113.4309"/>
</g>
<!-- invasao_sem_builtin__soma_das_sublistas -->
<g id="node22" class="node">
<title>invasao_sem_builtin__soma_das_sublistas</title>
<ellipse fill="#ccfecc" fill-opacity="0.698039" stroke="#000000" cx="713.9919" cy="-162" rx="80.6858" ry="18"/>
<text text-anchor="middle" x="713.9919" y="-158.3" font-family="Times,serif" font-size="14.00" fill="#000000">soma_das_sublistas</text>
</g>
<!-- invasao_sem_builtin__metodo_B&#45;&gt;invasao_sem_builtin__soma_das_sublistas -->
<g id="edge19" class="edge">
<title>invasao_sem_builtin__metodo_B&#45;&gt;invasao_sem_builtin__soma_das_sublistas</title>
<path fill="none" stroke="#000000" d="M829.9975,-219.6028C808.9118,-209.1326 780.0352,-194.7939 756.3679,-183.0418"/>
<polygon fill="#000000" stroke="#000000" points="757.7618,-179.8263 747.2486,-178.5137 754.6486,-186.0959 757.7618,-179.8263"/>
</g>
<!-- invasao_sem_builtin__lista_dos_digitos -->
<g id="node13" class="node">
<title>invasao_sem_builtin__lista_dos_digitos</title>
<ellipse fill="#ccfecc" fill-opacity="0.698039" stroke="#000000" cx="1022.9919" cy="-90" rx="70.3881" ry="18"/>
<text text-anchor="middle" x="1022.9919" y="-86.3" font-family="Times,serif" font-size="14.00" fill="#000000">lista_dos_digitos</text>
</g>
<!-- invasao_sem_builtin__pedir_numeros_para_o_usuario&#45;&gt;invasao_sem_builtin__esta_em -->
<g id="edge25" class="edge">
<title>invasao_sem_builtin__pedir_numeros_para_o_usuario&#45;&gt;invasao_sem_builtin__esta_em</title>
<path fill="none" stroke="#000000" d="M1736.9919,-215.8314C1736.9919,-208.131 1736.9919,-198.9743 1736.9919,-190.4166"/>
<polygon fill="#000000" stroke="#000000" points="1740.492,-190.4132 1736.9919,-180.4133 1733.492,-190.4133 1740.492,-190.4132"/>
</g>
<!-- invasao_sem_builtin__dois_ultimos_digitos_de_cada_um&#45;&gt;invasao_sem_builtin__lista_dos_digitos -->
<g id="edge2" class="edge">
<title>invasao_sem_builtin__dois_ultimos_digitos_de_cada_um&#45;&gt;invasao_sem_builtin__lista_dos_digitos</title>
<path fill="none" stroke="#000000" d="M1022.9919,-143.8314C1022.9919,-136.131 1022.9919,-126.9743 1022.9919,-118.4166"/>
<polygon fill="#000000" stroke="#000000" points="1026.492,-118.4132 1022.9919,-108.4133 1019.492,-118.4133 1026.492,-118.4132"/>
</g>
<!-- invasao_sem_builtin__soma_dos_pares&#45;&gt;invasao_sem_builtin__soma_da_lista -->
<g id="edge26" class="edge">
<title>invasao_sem_builtin__soma_dos_pares&#45;&gt;invasao_sem_builtin__soma_da_lista</title>
<path fill="none" stroke="#000000" d="M775.1043,-72.2022C780.8171,-63.8079 787.7493,-53.6218 794.0553,-44.3558"/>
<polygon fill="#000000" stroke="#000000" points="797.1163,-46.0789 799.8491,-35.8425 791.3293,-42.1405 797.1163,-46.0789"/>
</g>
<!-- invasao_sem_builtin__soma_das_sublistas&#45;&gt;invasao_sem_builtin__soma_dos_pares -->
<g id="edge1" class="edge">
<title>invasao_sem_builtin__soma_das_sublistas&#45;&gt;invasao_sem_builtin__soma_dos_pares</title>
<path fill="none" stroke="#000000" d="M726.1043,-144.2022C731.8171,-135.8079 738.7493,-125.6218 745.0553,-116.3558"/>
<polygon fill="#000000" stroke="#000000" points="748.1163,-118.0789 750.8491,-107.8425 742.3293,-114.1405 748.1163,-118.0789"/>
</g>
</g>
</svg>
